<svg version="1.1" id="Layer_1" xmlns="http://www.w3.org/2000/svg" xmlns:xlink="http://www.w3.org/1999/xlink" x="0px" y="0px"
	 width="100%" viewBox="0 0 288 288" enable-background="new 0 0 288 288" xml:space="preserve">
<path fill="#7AAA9C" opacity="1.000000" stroke="none" 
	d="
M164.000000,289.000000 
	C109.333344,289.000000 55.166679,289.000000 1.000015,289.000000 
	C1.000010,193.000015 1.000010,97.000038 1.000005,1.000040 
	C96.999969,1.000027 192.999939,1.000027 288.999939,1.000013 
	C288.999939,96.999962 288.999939,192.999924 288.999969,288.999939 
	C247.500000,289.000000 206.000000,289.000000 164.000000,289.000000 
M190.585968,204.086105 
	C200.524841,194.844971 207.341171,183.822754 209.305130,170.232254 
	C209.653610,167.820663 208.684021,165.218582 208.323074,162.704483 
	C206.574234,164.181213 204.532913,165.422913 203.125687,167.174164 
	C195.899429,176.166916 186.994995,177.177750 177.948669,170.341599 
	C167.998611,162.822495 157.674149,155.798676 147.728836,148.273590 
	C145.695755,146.735260 143.462418,144.016937 143.289703,141.696075 
	C142.053940,125.089767 140.777023,108.449860 140.647110,91.811775 
	C140.569962,81.928963 137.680618,74.481865 128.817047,70.035828 
	C120.371651,65.799545 113.626236,69.922134 106.743645,74.692009 
	C102.940666,77.327606 98.111984,78.494690 93.722870,80.267281 
	C92.014732,80.957138 90.243889,81.491707 88.501602,82.097008 
	C89.800667,83.623741 90.803581,85.891052 92.449905,86.549400 
	C99.694366,89.446381 107.180374,91.735336 114.454842,94.563591 
	C116.766457,95.462318 119.408798,96.890976 120.672104,98.863441 
	C125.789238,106.853104 126.051361,115.787582 124.409676,124.836090 
	C122.625374,134.670700 117.640587,142.709869 110.671066,149.821915 
	C102.837158,157.816040 101.207336,167.036865 106.392403,176.810883 
	C114.852768,192.758942 126.908493,205.468719 143.081421,213.839584 
	C145.861313,215.278427 146.938889,216.792419 147.036041,219.851883 
	C147.372375,230.444046 147.476364,230.367752 136.969376,230.869568 
	C135.492645,230.940094 134.069412,232.130585 132.621429,232.802689 
	C134.170334,233.493134 135.702576,234.732346 137.270981,234.779922 
	C144.427948,234.997025 151.597916,234.982971 158.755844,234.785172 
	C160.017731,234.750305 161.244492,233.444427 162.487473,232.725510 
	C161.147537,232.079941 159.803955,230.873138 158.468246,230.881790 
	C150.984009,230.930267 150.959488,231.691666 150.790588,222.595047 
	C150.757706,220.824173 150.785858,219.052185 150.785858,216.734085 
	C166.338165,219.069824 179.083740,214.497040 190.585968,204.086105 
M112.006302,241.229782 
	C101.949471,240.913376 95.016823,247.043335 95.215149,256.076782 
	C95.401176,264.550110 102.696579,271.033447 111.187355,270.271088 
	C117.881195,269.670074 123.421989,264.378815 124.248299,257.798401 
	C125.205238,250.177795 121.058022,244.225082 112.006302,241.229782 
M173.109512,253.490799 
	C166.069962,246.030258 157.276398,245.402878 150.884689,251.905212 
	C144.944641,257.948029 145.333557,267.541809 151.745987,273.152374 
	C156.821991,277.593628 164.790054,277.851349 170.158493,273.747925 
	C176.243561,269.096741 177.456360,262.024994 173.109512,253.490799 
M60.196991,233.903748 
	C58.072521,229.482681 58.702686,225.446640 62.170910,222.028595 
	C67.959045,216.324112 76.173431,219.039398 79.265755,227.427185 
	C79.692200,228.583893 81.314316,229.299820 82.382881,230.219803 
	C82.712090,228.924316 83.491600,227.556946 83.298111,226.344894 
	C81.948021,217.887970 73.090248,212.741119 64.735275,215.403946 
	C58.896709,217.264786 54.816685,222.740601 54.676548,228.903854 
	C54.534668,235.143967 58.359711,240.683136 64.125648,242.810074 
	C70.432365,245.136475 72.276863,239.520706 75.650154,235.977036 
	C74.061401,235.257050 72.240242,234.845993 71.237610,235.569397 
	C65.286255,239.863220 65.229256,239.941223 60.196991,233.903748 
M229.494156,224.552704 
	C223.642044,220.492188 223.642212,220.492325 227.905106,215.355347 
	C228.436203,214.715302 229.260406,214.140533 229.425201,213.416382 
	C229.668701,212.346390 229.442657,211.169525 229.416565,210.038177 
	C228.314331,210.281113 226.816299,210.152084 226.178131,210.831131 
	C223.359406,213.830460 220.788147,217.062347 217.759491,220.645111 
	C225.130112,226.937271 232.135178,232.917374 239.436859,239.150665 
	C242.516968,235.565323 245.319489,232.507690 247.827454,229.225006 
	C248.382446,228.498566 247.895996,226.976486 247.889084,225.820770 
	C246.781570,226.074310 245.359329,225.982208 244.627625,226.648438 
	C242.700485,228.403214 241.073410,230.487518 239.412079,232.345261 
	C232.733459,228.879562 232.685959,228.666550 237.027725,223.406082 
	C237.557144,222.764648 238.339661,222.193954 238.550079,221.460068 
	C238.859085,220.382263 238.758102,219.186905 238.831787,218.041641 
	C237.619888,218.308777 236.096848,218.208466 235.259277,218.917664 
	C233.374283,220.513809 231.829010,222.511093 229.494156,224.552704 
M217.857544,74.603500 
	C220.300247,77.093475 222.628922,79.714790 225.254333,81.994324 
	C226.054214,82.688835 227.671341,82.442123 228.914185,82.626480 
	C228.688019,81.374329 228.899399,79.622665 228.150803,78.966934 
	C226.177948,77.238846 223.788208,75.986710 221.564468,74.545052 
	C222.107727,73.973808 222.650986,73.402565 223.194229,72.831322 
	C224.597290,71.087807 226.000351,69.344284 228.300598,66.485847 
	C230.483551,69.270859 231.725891,71.301811 233.417160,72.838776 
	C234.363663,73.698921 236.054474,73.740028 237.409912,74.150185 
	C237.005035,72.670624 236.936310,70.961021 236.117615,69.764633 
	C234.844193,67.903786 233.060867,66.391861 231.575897,64.819153 
	C233.153183,62.625210 234.465500,60.799831 235.945129,58.741741 
	C238.939423,61.541027 240.891953,63.570084 243.087601,65.288490 
	C243.704819,65.771553 245.036026,65.342293 246.039749,65.331497 
	C246.021317,64.322258 246.425812,62.925701 245.914703,62.367630 
	C242.949234,59.129520 239.768250,56.088768 236.656891,52.977985 
	C230.069992,59.500275 224.036636,65.421906 218.101044,71.439941 
	C217.557068,71.991463 217.638062,73.159370 217.857544,74.603500 
M203.611786,261.132050 
	C207.643372,262.734711 211.749878,262.130829 213.820999,258.596863 
	C215.348328,255.990768 215.757065,251.939026 214.985596,248.967178 
	C213.917450,244.852448 209.862518,243.673630 205.756882,243.689468 
	C204.599152,243.693924 203.298065,244.249878 202.318512,243.878387 
	C200.849487,243.321259 199.606339,242.168579 198.267136,241.269165 
	C199.503830,240.615280 200.739258,239.958969 201.977615,239.308258 
	C203.014954,238.763199 204.055740,238.224701 205.095001,237.683273 
	C204.170563,236.719452 203.414612,235.272736 202.290695,234.880554 
	C198.629807,233.603058 194.742249,236.017746 193.892548,239.772232 
	C192.979416,243.806931 195.444366,247.528580 199.678833,248.039108 
	C202.292908,248.354263 205.088318,247.683044 207.578094,248.324677 
	C209.165482,248.733749 210.889679,250.517853 211.514755,252.096375 
	C211.943512,253.179153 210.990753,255.611145 209.927368,256.276825 
	C208.636978,257.084625 206.578247,256.776886 204.855499,256.746979 
	C203.470200,256.722900 202.090210,256.394043 200.707855,256.200409 
	C201.443253,257.736084 202.178665,259.271729 203.611786,261.132050 
M123.170860,22.895281 
	C120.412796,23.526348 117.600380,23.993301 114.926590,24.878828 
	C114.009193,25.182655 113.438560,26.533476 112.709511,27.405979 
	C113.706955,27.958447 114.873581,29.160109 115.672783,28.951841 
	C119.276947,28.012621 119.954338,30.120623 120.504044,32.842381 
	C121.558716,38.064396 122.611992,43.296291 123.999298,48.434052 
	C124.305252,49.567142 126.000397,50.325119 127.055855,51.255825 
	C127.424011,50.000488 128.276596,48.660969 128.075623,47.504532 
	C127.249687,42.751602 126.113510,38.052097 125.071198,33.337421 
	C124.383644,30.227394 123.115311,26.958950 128.054565,26.063036 
	C128.632416,25.958223 129.546463,24.287460 129.329697,23.923830 
	C128.859039,23.134262 127.819397,22.432308 126.896881,22.235254 
	C125.996536,22.042938 124.952492,22.523386 123.170860,22.895281 
M159.620911,20.451981 
	C158.280441,20.979124 156.939972,21.506268 155.599503,22.033415 
	C156.506805,22.958536 157.313538,24.528290 158.340195,24.688480 
	C161.479614,25.178333 161.414139,27.110630 161.138290,29.413782 
	C160.506561,34.687897 159.780121,39.956661 159.391434,45.249577 
	C159.297195,46.533092 160.362701,47.901775 160.894913,49.231300 
	C161.818893,48.008904 163.329849,46.887909 163.561691,45.545937 
	C164.408157,40.646080 164.899750,35.679489 165.381119,30.724058 
	C165.662415,27.828339 166.076675,25.456427 169.974930,25.899746 
	C170.766037,25.989716 171.729797,24.561417 172.613968,23.833050 
	C171.693878,23.097980 170.860947,21.909422 169.837402,21.712755 
	C166.749237,21.119383 163.586975,20.911531 159.620911,20.451981 
M74.440796,80.890060 
	C75.968338,79.356087 77.709648,77.972038 78.934425,76.225731 
	C79.559235,75.334869 79.256981,73.793808 79.373772,72.546638 
	C78.249969,72.729210 76.885590,72.572487 76.051613,73.163811 
	C74.219826,74.462631 72.656349,76.139854 69.986099,78.570251 
	C64.672646,72.408035 59.687656,66.626747 54.702671,60.845459 
	C51.046711,63.098068 50.952168,64.564064 53.095890,66.625099 
	C58.256607,71.586746 63.409184,76.567436 68.331894,81.761421 
	C70.652672,84.210083 72.215233,83.521454 74.440796,80.890060 
M200.641800,57.789597 
	C198.370834,56.542969 196.099884,55.296341 193.559998,53.902088 
	C196.655167,47.362164 199.638824,41.281372 202.353180,35.082657 
	C202.762665,34.147552 201.916168,32.662457 201.650635,31.431768 
	C200.727371,31.820698 199.296463,31.957335 198.958603,32.637188 
	C195.145691,40.309620 191.500458,48.065380 187.606216,56.226406 
	C191.398438,58.064011 194.594559,59.762962 197.912781,61.174992 
	C200.765411,62.388897 202.062119,61.402008 200.641800,57.789597 
M89.231377,39.276459 
	C87.915932,38.526783 86.600479,37.777107 85.285027,37.027435 
	C85.321938,38.471638 84.876762,40.166828 85.476181,41.318165 
	C88.692245,47.495380 92.082306,53.588219 95.633240,59.579227 
	C96.281509,60.672962 97.951843,61.160908 99.150368,61.928501 
	C99.173965,60.391113 99.744812,58.575359 99.128403,57.363510 
	C96.121986,51.453007 92.798431,45.703819 89.231377,39.276459 
z"/>
<path fill="#EAF6F4" opacity="1.000000" stroke="none" 
	d="
M190.319489,204.316498 
	C179.083740,214.497040 166.338165,219.069824 150.785858,216.734085 
	C150.785858,219.052185 150.757706,220.824173 150.790588,222.595047 
	C150.959488,231.691666 150.984009,230.930267 158.468246,230.881790 
	C159.803955,230.873138 161.147537,232.079941 162.487473,232.725525 
	C161.244492,233.444427 160.017731,234.750305 158.755844,234.785172 
	C151.597916,234.982971 144.427948,234.997025 137.270981,234.779922 
	C135.702576,234.732346 134.170334,233.493134 132.621429,232.802673 
	C134.069412,232.130585 135.492645,230.940094 136.969376,230.869568 
	C147.476364,230.367752 147.372375,230.444046 147.036041,219.851883 
	C146.938889,216.792419 145.861313,215.278427 143.081421,213.839584 
	C126.908493,205.468719 114.852768,192.758942 106.392403,176.810883 
	C101.207336,167.036865 102.837158,157.816040 110.671066,149.821915 
	C117.640587,142.709869 122.625374,134.670700 124.409676,124.836090 
	C126.051361,115.787582 125.789238,106.853104 120.672104,98.863441 
	C119.408798,96.890976 116.766457,95.462318 114.454842,94.563591 
	C107.180374,91.735336 99.694366,89.446381 92.449905,86.549400 
	C90.803581,85.891052 89.800667,83.623741 88.501602,82.097008 
	C90.243889,81.491707 92.014732,80.957138 93.722870,80.267281 
	C98.111984,78.494690 102.940666,77.327606 106.743645,74.692009 
	C113.626236,69.922134 120.371651,65.799545 128.817047,70.035828 
	C137.680618,74.481865 140.569962,81.928963 140.647110,91.811775 
	C140.777023,108.449860 142.053940,125.089767 143.289703,141.696075 
	C143.462418,144.016937 145.695755,146.735260 147.728836,148.273590 
	C157.674149,155.798676 167.998611,162.822495 177.948669,170.341599 
	C186.994995,177.177750 195.899429,176.166916 203.125687,167.174164 
	C204.532913,165.422913 206.574234,164.181213 208.323074,162.704468 
	C208.684021,165.218582 209.653610,167.820663 209.305130,170.232254 
	C207.341171,183.822754 200.524841,194.844971 190.319489,204.316498 
M154.419601,213.277695 
	C157.400787,213.327713 160.431564,213.753021 163.355072,213.366653 
	C181.907852,210.914688 200.788345,193.098480 204.680588,174.538757 
	C204.820969,173.869370 204.578476,173.119690 204.476318,171.983643 
	C203.468536,172.627228 202.906921,172.941711 202.392883,173.320724 
	C192.138290,180.881897 185.023422,180.469986 174.949112,172.692886 
	C165.607971,165.481796 155.927750,158.695038 146.205154,151.999786 
	C141.920288,149.049133 139.387878,145.754654 139.198242,140.245392 
	C138.591003,122.603043 137.603119,104.973083 136.682739,87.342491 
	C136.074722,75.695793 124.398903,68.581741 114.626457,74.069000 
	C108.896927,77.286148 103.522591,81.135857 97.174416,85.225456 
	C103.443611,87.146469 109.357079,88.693161 115.057060,90.813721 
	C118.037491,91.922531 121.701477,93.380463 123.222618,95.822975 
	C128.155060,103.742981 130.601624,112.436165 128.854813,122.050545 
	C126.801437,133.352280 122.364586,143.270538 114.181824,151.512665 
	C106.157539,159.595184 105.246277,167.349350 110.787918,177.266541 
	C117.412689,189.122040 126.615959,198.768814 137.671295,206.393341 
	C142.322403,209.601089 148.239319,210.973465 154.419601,213.277695 
z"/>
<path fill="#EBF6F5" opacity="1.000000" stroke="none" 
	d="
M112.407578,241.304260 
	C121.058022,244.225082 125.205238,250.177795 124.248299,257.798401 
	C123.421989,264.378815 117.881195,269.670074 111.187355,270.271088 
	C102.696579,271.033447 95.401176,264.550110 95.215149,256.076782 
	C95.016823,247.043335 101.949471,240.913376 112.407578,241.304260 
M105.049446,264.779877 
	C109.203232,266.768524 113.613312,266.752167 116.421974,263.218506 
	C118.434006,260.687073 119.755997,256.694275 119.510330,253.497604 
	C119.151505,248.828491 115.573082,245.962418 110.660583,245.671677 
	C105.903824,245.390167 102.307632,247.361282 100.386452,251.879822 
	C98.358063,256.650513 99.554970,260.316071 105.049446,264.779877 
z"/>
<path fill="#ECF7F5" opacity="1.000000" stroke="none" 
	d="
M173.318619,253.796478 
	C177.456360,262.024994 176.243561,269.096741 170.158493,273.747925 
	C164.790054,277.851349 156.821991,277.593628 151.745987,273.152374 
	C145.333557,267.541809 144.944641,257.948029 150.884689,251.905212 
	C157.276398,245.402878 166.069962,246.030258 173.318619,253.796478 
M171.624374,261.661713 
	C170.896179,256.543854 168.255936,252.986862 163.020325,252.079132 
	C158.759048,251.340332 155.117859,252.830856 152.732925,256.557220 
	C150.375000,260.241333 150.343094,264.109131 152.779999,267.774353 
	C155.227432,271.455414 158.860687,272.899933 163.131927,272.078461 
	C168.338028,271.077209 170.993271,267.565369 171.624374,261.661713 
z"/>
<path fill="#ECF8F6" opacity="1.000000" stroke="none" 
	d="
M60.387299,234.240570 
	C65.229256,239.941223 65.286255,239.863220 71.237610,235.569397 
	C72.240242,234.845993 74.061401,235.257050 75.650154,235.977036 
	C72.276863,239.520706 70.432365,245.136475 64.125648,242.810074 
	C58.359711,240.683136 54.534668,235.143967 54.676548,228.903854 
	C54.816685,222.740601 58.896709,217.264786 64.735275,215.403946 
	C73.090248,212.741119 81.948021,217.887970 83.298111,226.344894 
	C83.491600,227.556946 82.712090,228.924316 82.382889,230.219803 
	C81.314316,229.299820 79.692200,228.583893 79.265755,227.427185 
	C76.173431,219.039398 67.959045,216.324112 62.170910,222.028595 
	C58.702686,225.446640 58.072521,229.482681 60.387299,234.240570 
z"/>
<path fill="#EBF7F5" opacity="1.000000" stroke="none" 
	d="
M229.819809,224.448914 
	C231.829010,222.511093 233.374283,220.513809 235.259277,218.917664 
	C236.096848,218.208466 237.619888,218.308777 238.831787,218.041641 
	C238.758102,219.186905 238.859085,220.382263 238.550079,221.460068 
	C238.339661,222.193954 237.557144,222.764648 237.027725,223.406082 
	C232.685959,228.666550 232.733459,228.879562 239.412079,232.345261 
	C241.073410,230.487518 242.700485,228.403214 244.627625,226.648438 
	C245.359329,225.982208 246.781570,226.074310 247.889099,225.820770 
	C247.895996,226.976486 248.382446,228.498566 247.827454,229.225006 
	C245.319489,232.507690 242.516968,235.565323 239.436859,239.150665 
	C232.135178,232.917374 225.130112,226.937271 217.759491,220.645111 
	C220.788147,217.062347 223.359406,213.830460 226.178131,210.831131 
	C226.816299,210.152084 228.314331,210.281113 229.416565,210.038177 
	C229.442657,211.169525 229.668701,212.346390 229.425201,213.416382 
	C229.260406,214.140533 228.436203,214.715302 227.905106,215.355347 
	C223.642212,220.492325 223.642044,220.492188 229.819809,224.448914 
z"/>
<path fill="#EDF7F6" opacity="1.000000" stroke="none" 
	d="
M217.643204,74.322281 
	C217.638062,73.159370 217.557068,71.991463 218.101044,71.439941 
	C224.036636,65.421906 230.069992,59.500275 236.656891,52.977985 
	C239.768250,56.088768 242.949234,59.129520 245.914703,62.367630 
	C246.425812,62.925701 246.021317,64.322258 246.039749,65.331497 
	C245.036026,65.342293 243.704819,65.771553 243.087601,65.288490 
	C240.891953,63.570084 238.939423,61.541027 235.945129,58.741741 
	C234.465500,60.799831 233.153183,62.625210 231.575897,64.819153 
	C233.060867,66.391861 234.844193,67.903786 236.117615,69.764633 
	C236.936310,70.961021 237.005035,72.670624 237.409912,74.150185 
	C236.054474,73.740028 234.363663,73.698921 233.417160,72.838776 
	C231.725891,71.301811 230.483551,69.270859 228.300598,66.485847 
	C226.000351,69.344284 224.597290,71.087807 223.194229,72.831322 
	C222.650986,73.402565 222.107727,73.973808 221.564468,74.545052 
	C223.788208,75.986710 226.177948,77.238846 228.150803,78.966934 
	C228.899399,79.622665 228.688019,81.374329 228.914185,82.626480 
	C227.671341,82.442123 226.054214,82.688835 225.254333,81.994324 
	C222.628922,79.714790 220.300247,77.093475 217.643204,74.322281 
z"/>
<path fill="#ECF7F6" opacity="1.000000" stroke="none" 
	d="
M203.262939,260.969727 
	C202.178665,259.271729 201.443253,257.736084 200.707855,256.200409 
	C202.090210,256.394043 203.470200,256.722900 204.855499,256.746979 
	C206.578247,256.776886 208.636978,257.084625 209.927368,256.276825 
	C210.990753,255.611145 211.943512,253.179153 211.514755,252.096375 
	C210.889679,250.517853 209.165482,248.733749 207.578094,248.324677 
	C205.088318,247.683044 202.292908,248.354263 199.678833,248.039108 
	C195.444366,247.528580 192.979416,243.806931 193.892548,239.772232 
	C194.742249,236.017746 198.629807,233.603058 202.290695,234.880554 
	C203.414612,235.272736 204.170563,236.719452 205.095001,237.683289 
	C204.055740,238.224701 203.014954,238.763199 201.977615,239.308258 
	C200.739258,239.958969 199.503830,240.615280 198.267136,241.269165 
	C199.606339,242.168579 200.849487,243.321259 202.318512,243.878387 
	C203.298065,244.249878 204.599152,243.693924 205.756882,243.689468 
	C209.862518,243.673630 213.917450,244.852448 214.985596,248.967178 
	C215.757065,251.939026 215.348328,255.990768 213.820999,258.596863 
	C211.749878,262.130829 207.643372,262.734711 203.262939,260.969727 
z"/>
<path fill="#EBF6F5" opacity="1.000000" stroke="none" 
	d="
M123.571198,22.801884 
	C124.952492,22.523386 125.996536,22.042938 126.896881,22.235254 
	C127.819397,22.432308 128.859039,23.134262 129.329697,23.923830 
	C129.546463,24.287460 128.632416,25.958223 128.054565,26.063036 
	C123.115311,26.958950 124.383644,30.227394 125.071198,33.337421 
	C126.113510,38.052097 127.249687,42.751602 128.075623,47.504532 
	C128.276596,48.660969 127.424011,50.000488 127.055847,51.255825 
	C126.000397,50.325119 124.305252,49.567142 123.999298,48.434052 
	C122.611992,43.296291 121.558716,38.064396 120.504044,32.842381 
	C119.954338,30.120623 119.276947,28.012621 115.672783,28.951841 
	C114.873581,29.160109 113.706955,27.958447 112.709511,27.405977 
	C113.438560,26.533476 114.009193,25.182655 114.926590,24.878828 
	C117.600380,23.993301 120.412796,23.526348 123.571198,22.801884 
z"/>
<path fill="#EAF6F4" opacity="1.000000" stroke="none" 
	d="
M160.037262,20.502678 
	C163.586975,20.911531 166.749237,21.119383 169.837402,21.712755 
	C170.860947,21.909422 171.693878,23.097980 172.613968,23.833050 
	C171.729797,24.561417 170.766037,25.989716 169.974930,25.899746 
	C166.076675,25.456427 165.662415,27.828339 165.381119,30.724058 
	C164.899750,35.679489 164.408157,40.646080 163.561691,45.545937 
	C163.329849,46.887909 161.818893,48.008904 160.894913,49.231300 
	C160.362701,47.901775 159.297195,46.533092 159.391434,45.249577 
	C159.780121,39.956661 160.506561,34.687897 161.138290,29.413782 
	C161.414139,27.110630 161.479614,25.178333 158.340195,24.688480 
	C157.313538,24.528290 156.506805,22.958536 155.599503,22.033413 
	C156.939972,21.506268 158.280441,20.979124 160.037262,20.502678 
z"/>
<path fill="#EAF6F4" opacity="1.000000" stroke="none" 
	d="
M74.193390,81.132492 
	C72.215233,83.521454 70.652672,84.210083 68.331894,81.761421 
	C63.409184,76.567436 58.256607,71.586746 53.095890,66.625099 
	C50.952168,64.564064 51.046711,63.098068 54.702671,60.845459 
	C59.687656,66.626747 64.672646,72.408035 69.986099,78.570251 
	C72.656349,76.139854 74.219826,74.462631 76.051613,73.163811 
	C76.885590,72.572487 78.249969,72.729210 79.373764,72.546638 
	C79.256981,73.793808 79.559235,75.334869 78.934425,76.225731 
	C77.709648,77.972038 75.968338,79.356087 74.193390,81.132492 
z"/>
<path fill="#EAF6F5" opacity="1.000000" stroke="none" 
	d="
M200.916046,58.010803 
	C202.062119,61.402008 200.765411,62.388897 197.912781,61.174992 
	C194.594559,59.762962 191.398438,58.064011 187.606216,56.226406 
	C191.500458,48.065380 195.145691,40.309620 198.958603,32.637188 
	C199.296463,31.957335 200.727371,31.820698 201.650635,31.431768 
	C201.916168,32.662457 202.762665,34.147552 202.353180,35.082657 
	C199.638824,41.281372 196.655167,47.362164 193.559998,53.902088 
	C196.099884,55.296341 198.370834,56.542969 200.916046,58.010803 
z"/>
<path fill="#EAF6F5" opacity="1.000000" stroke="none" 
	d="
M89.409225,39.587009 
	C92.798431,45.703819 96.121986,51.453007 99.128403,57.363510 
	C99.744812,58.575359 99.173965,60.391113 99.150368,61.928501 
	C97.951843,61.160908 96.281509,60.672962 95.633240,59.579227 
	C92.082306,53.588219 88.692245,47.495380 85.476181,41.318165 
	C84.876762,40.166828 85.321938,38.471638 85.285027,37.027435 
	C86.600479,37.777107 87.915932,38.526783 89.409225,39.587009 
z"/>
<path fill="#7CAB9D" opacity="1.000000" stroke="none" 
	d="
M154.000214,213.228928 
	C148.239319,210.973465 142.322403,209.601089 137.671295,206.393341 
	C126.615959,198.768814 117.412689,189.122040 110.787918,177.266541 
	C105.246277,167.349350 106.157539,159.595184 114.181824,151.512665 
	C122.364586,143.270538 126.801437,133.352280 128.854813,122.050545 
	C130.601624,112.436165 128.155060,103.742981 123.222618,95.822975 
	C121.701477,93.380463 118.037491,91.922531 115.057060,90.813721 
	C109.357079,88.693161 103.443611,87.146469 97.174416,85.225456 
	C103.522591,81.135857 108.896927,77.286148 114.626457,74.069000 
	C124.398903,68.581741 136.074722,75.695793 136.682739,87.342491 
	C137.603119,104.973083 138.591003,122.603043 139.198242,140.245392 
	C139.387878,145.754654 141.920288,149.049133 146.205154,151.999786 
	C155.927750,158.695038 165.607971,165.481796 174.949112,172.692886 
	C185.023422,180.469986 192.138290,180.881897 202.392883,173.320724 
	C202.906921,172.941711 203.468536,172.627228 204.476318,171.983643 
	C204.578476,173.119690 204.820969,173.869370 204.680588,174.538757 
	C200.788345,193.098480 181.907852,210.914688 163.355072,213.366653 
	C160.431564,213.753021 157.400787,213.327713 154.000214,213.228928 
z"/>
<path fill="#7EAB9E" opacity="1.000000" stroke="none" 
	d="
M104.716827,264.585144 
	C99.554970,260.316071 98.358063,256.650513 100.386452,251.879822 
	C102.307632,247.361282 105.903824,245.390167 110.660583,245.671677 
	C115.573082,245.962418 119.151505,248.828491 119.510330,253.497604 
	C119.755997,256.694275 118.434006,260.687073 116.421974,263.218506 
	C113.613312,266.752167 109.203232,266.768524 104.716827,264.585144 
z"/>
<path fill="#7FAB9E" opacity="1.000000" stroke="none" 
	d="
M171.628387,262.036835 
	C170.993271,267.565369 168.338028,271.077209 163.131927,272.078461 
	C158.860687,272.899933 155.227432,271.455414 152.779999,267.774353 
	C150.343094,264.109131 150.375000,260.241333 152.732925,256.557220 
	C155.117859,252.830856 158.759048,251.340332 163.020325,252.079132 
	C168.255936,252.986862 170.896179,256.543854 171.628387,262.036835 
z"/>
</svg>